<?xml version="1.0" encoding="utf-8"?>
<!-- Generator: Adobe Illustrator 23.0.3, SVG Export Plug-In . SVG Version: 6.00 Build 0)  -->
<svg version="1.1" id="Ebene_1" xmlns="http://www.w3.org/2000/svg" xmlns:xlink="http://www.w3.org/1999/xlink" x="0px" y="0px"
	 viewBox="0 0 425.2 141.73" style="enable-background:new 0 0 425.2 141.73;" xml:space="preserve">
<style type="text/css">
	.st0{fill:#EB5668;}
	.st1{fill:#CA5062;}
	.st2{fill:#4BC2F1;}
	.st3{fill:#44A5DD;}
	.st4{fill:#F9DC26;}
	.st5{fill:#FFFFFF;}
</style>
<path class="st0" d="M29.32,0h75.44v75.29H29.32V0z"/>
<path class="st1" d="M29.32,57.58h75.44v17.72H29.32V57.58z"/>
<path class="st2" d="M62.85,66.44h71.25v75.3H62.85V66.44z"/>
<path class="st3" d="M62.85,66.44h16.76v75.3H62.85V66.44z"/>
<path class="st4" d="M-0.4,66.44h71.25v75.3H-0.4V66.44z"/>
<g>
	<path class="st5" d="M207.17,92.46c0,2.7-0.54,4.8-1.63,6.3c-0.88,1.19-2.02,1.97-3.43,2.34c-0.73,0.21-1.79,0.47-3.19,0.78
		c-1.09,0.26-1.79,0.39-2.1,0.39c-2.23,0-4.13-1-5.68-3s-2.34-4.48-2.34-7.43c0-1.14,0.28-3.79,0.86-7.94
		c0.47-3.22,0.49-5.76,0.08-7.63c-0.26,0.78-1.06,3.14-2.41,7.08c-1.77,4.98-3.35,8.02-4.75,9.11c-0.78,0.62-1.71,0.93-2.8,0.93
		c-0.83,0-1.69-0.28-2.57-0.86c-2.8-2.91-4.98-8.54-6.54-16.89c-0.26,1.3-0.39,2.62-0.39,3.97c0,0.78,0.21,3.24,0.62,7.39
		c0.31,2.96,0.31,5.32,0,7.08c-0.42,2.28-1.53,4.31-3.35,6.07c-1.82,1.04-3.56,1.56-5.22,1.56c-2.28,0-4.39-1.01-6.31-3.04
		c-2.13-3.63-3.37-6.04-3.74-7.24c-0.78-2.34-1.17-5.84-1.17-10.51c0-4.31,0.36-11.94,1.09-22.89c0.26-3.79,1.41-7.02,3.46-9.69
		c2.05-2.67,4.81-4.5,8.29-5.49c6.9-0.21,12.14,5.73,15.72,17.83c0.26-2.23,1.06-5.19,2.41-8.87c1.97-5.4,4.2-8.69,6.69-9.89
		c2.44-0.73,4.52-1.09,6.23-1.09c2.85,0,5.03,0.88,6.54,2.65c1.97,1.82,3.35,4.15,4.13,7.01c0.52,1.92,0.86,4.98,1.01,9.19
		c0.05,3.84,0.1,7.68,0.16,11.52c0.21,8.51,0.31,15.57,0.31,21.17V92.46z"/>
	<path class="st5" d="M256.05,89.19l0.08,0.08c-1.35,4.2-3.72,7.53-7.12,9.96c-3.4,2.44-7.33,3.66-11.79,3.66
		c-8.25,0-14.66-3.11-19.23-9.34c-3.89-5.29-5.84-11.73-5.84-19.3c0-3.48,0.31-6.69,0.93-9.65c2.85-13.54,8.9-21.17,18.14-22.89
		c0.83-0.16,1.71-0.23,2.65-0.23c4.15,0,8.19,1.38,12.1,4.13c3.92,2.75,6.55,6.1,7.9,10.04c2.9,8.56,4.36,15.23,4.36,20.01
		c0,4.05-0.75,8.56-2.26,13.54H256.05z M236.75,83.59v-0.08c1.5-0.26,2.26-3.14,2.26-8.64c0-3.17-0.29-6.08-0.86-8.76
		c-0.57-2.67-1.19-4.06-1.87-4.16c-1.14-0.31-2.18,0.93-3.12,3.74c-0.93,2.8-1.4,5.89-1.4,9.26
		C231.76,81.23,233.42,84.11,236.75,83.59z"/>
	<path class="st5" d="M302.05,68.72c0,7.16-1.56,13.62-4.67,19.38c-3.79,7.11-9.42,11.73-16.89,13.86
		c-4.05,0.26-7.69-0.22-10.94-1.44c-3.24-1.22-4.94-2.81-5.1-4.79c-0.93-13.86-1.4-27.17-1.4-39.93c0-4.72,0.1-8.1,0.31-10.12
		c1.3-2.8,5.47-4.2,12.53-4.2c4,0,7.55,0.47,10.67,1.4c3.27,1.51,6.23,4,8.87,7.47C299.85,56.16,302.05,62.29,302.05,68.72z
		 M282.59,61.71c-0.73-0.88-1.43-1.32-2.1-1.32c-0.31,0-0.7,0.1-1.17,0.31c-0.47,0.21-0.73,0.31-0.78,0.31
		c0.57,3.69,0.93,9.81,1.09,18.37c1.5-1.04,2.76-2.57,3.77-4.59c1.01-2.02,1.52-4.07,1.52-6.15
		C284.93,65.94,284.15,63.63,282.59,61.71z"/>
	<path class="st5" d="M341.83,65.06c0.21,0.78,0.29,1.58,0.23,2.41c0,2.75-1.12,5.06-3.35,6.93c-2.02,1.76-4.2,2.52-6.54,2.26
		c-0.42-0.16-1.19-0.18-2.33-0.08c0.1,0.62-0.08,2.28-0.54,4.98c0,1.25,0.54,2.18,1.63,2.8c2.13-0.57,3.87-0.57,5.21,0
		c2.13,0.83,3.29,2.23,3.5,4.2c0.26,2.23-0.39,4.5-1.95,6.81c-1.56,2.31-3.71,4.24-6.46,5.8c-2.44,1.4-5.32,2.1-8.64,2.1
		c-2.91,0-5.53-0.54-7.86-1.63c-0.99-0.47-2.46-1.92-4.44-4.36c-2.13-3.53-3.22-10.98-3.27-22.34c-0.05-6.54,0.49-14.01,1.63-22.42
		c0.67-4.88,2.08-8.04,4.2-9.5l13-1.32c2.23-0.47,4.36-0.7,6.38-0.7c4.05,0,6.43,1.01,7.16,3.04c0.31,0.83,0.47,1.77,0.47,2.8
		c0,2.23-0.83,4.05-2.49,5.45c-1.66,1.4-3.97,2.1-6.93,2.1c-0.73,0-1.3,0-1.71,0c-0.36,0.77-0.57,2.01-0.62,3.7
		c-0.1,2.16-0.18,3.39-0.23,3.7c0.16,0.72,0.7,1.18,1.63,1.39c1.5-1.19,3.4-1.79,5.68-1.79C337.86,61.4,340.07,62.62,341.83,65.06z"
		/>
	<path class="st5" d="M379.43,90.67h-0.08c-0.57,4.46-2.21,7.42-4.9,8.87c-3.74,1.51-7.52,2.26-11.36,2.26
		c-11,0-16.5-5.94-16.5-17.83v-4.59c0-0.57,0.03-1.45,0.08-2.65c0.05-0.93,0.08-1.61,0.08-2.02c-0.26-10.48,0.18-18.86,1.32-25.14
		c0.93-2.65,2.01-4.46,3.23-5.45c1.22-0.99,3.1-1.58,5.64-1.79c0.57-0.05,1.19-0.08,1.87-0.08c2.23,0,3.84,0.47,4.83,1.4
		c0.42,0.42,1.19,1.63,2.33,3.66c0.88,3.42,1.32,7.78,1.32,13.08c0,3.27-0.31,8.38-0.93,15.33c-0.42,4.83-0.47,7.4-0.16,7.71
		c1.97-0.99,4.41-1.48,7.32-1.48c0.73,0,1.25,0.08,1.56,0.23c1.5,0.52,2.62,1.69,3.35,3.5c0.47,1.19,0.8,2.91,1.01,5.14V90.67z"/>
	<path class="st5" d="M398.02,86.93h0.08c1.88-0.47,2.84-1.4,2.89-2.8c0-0.52-0.22-1.01-0.66-1.48c-0.44-0.47-2.09-1.58-4.94-3.35
		c-2.39-1.5-4.13-2.78-5.22-3.81c-1.5-1.45-2.88-3.42-4.12-5.92c-1.61-3.27-2.41-6.59-2.41-9.96c0-4.88,1.92-9.24,5.76-13.08
		c4.25-4.25,9.34-6.38,15.26-6.38c3.43,0,6.51,0.81,9.26,2.41c1.71,1.04,3.55,2.96,5.53,5.76c0.83,1.25,1.27,2.41,1.32,3.5
		c0.05,1.3-0.57,2.88-1.87,4.75l0.08,0.08c-1.66,2.34-3.4,3.5-5.22,3.5c-0.62,0-1.48-0.13-2.57-0.39c-1.66-0.42-2.62-1.87-2.88-4.36
		c-0.1-0.98-0.86-1.48-2.26-1.48c-0.73,0-1.38,0.18-1.95,0.54c-0.57,1.04-0.86,2.08-0.86,3.11c0,1.76,0.83,3.24,2.49,4.44
		c6.12,4.36,9.73,7.06,10.82,8.1c3.89,3.69,5.97,7.55,6.23,11.6c0.05,0.99,0.13,2.31,0.23,3.97c0.1,6.69-3.93,11.91-12.09,15.65
		c-3.07,1.4-5.98,2.1-8.74,2.1c-0.42,0-0.99-0.05-1.72-0.16l-0.16-0.08c-9.98-1.61-15.37-5.37-16.14-11.29
		c-0.21-1.35-0.35-2.3-0.43-2.84c-0.08-0.54-0.12-0.71-0.12-0.51c0-1.4,0.42-2.62,1.25-3.66c0.83-1.04,1.77-1.56,2.82-1.56
		c0.47,0,1.85,0.61,4.14,1.83c2.29,1.22,3.88,1.83,4.77,1.83c0.37,0,0.81-0.05,1.33-0.16L398.02,86.93z"/>
</g>
</svg>
